<svg xmlns="http://www.w3.org/2000/svg" viewBox="0 0 32 32" fill="none">
  <path d="M6 2h14l8 8v20a2 2 0 0 1-2 2H6a2 2 0 0 1-2-2V4a2 2 0 0 1 2-2z" fill="#4A7C6F"/>
  <path d="M20 2v6a2 2 0 0 0 2 2h6" fill="#3D6B5E"/>
  <path d="M20 2l8 8h-6a2 2 0 0 1-2-2V2z" fill="#5B8A72"/>
  <rect x="9" y="14" width="14" height="1.5" rx="0.75" fill="white" opacity="0.9"/>
  <rect x="9" y="18" width="11" height="1.5" rx="0.75" fill="white" opacity="0.7"/>
  <rect x="9" y="22" width="13" height="1.5" rx="0.75" fill="white" opacity="0.5"/>
</svg>
